<svg id="oba-logo" xmlns="http://www.w3.org/2000/svg" viewBox="0 0 165.6 76.8">
  <title>Artboard 1</title>
  <g id="logo-group">
    <path id="A" d="M138.5,44.7v.2c3.9,2.4,5.5,6.9,5.5,11.5,0,6.8-3.9,13-11.3,13-12.6,0-12.8-15.3-12.8-24.7-4,0-6.5,3.3-6.5,7.2a12,12,0,0,0,4.3,9.2l-6.1,6A23.9,23.9,0,0,1,105.7,51c0-13.1,6.7-16.6,18.9-16.6h18.5V44.7Zm-11.4,2.8c0,3.4.3,11.1,5.3,11.1,2.7,0,3.9-2.9,3.9-5.3,0-4.5-2.3-8.6-6.8-8.6h-2.4Z" style="fill: #e30613"/>
    <path id="B" d="M45.9,0h15V32.2h.2c3.4-4.7,9.2-6.4,15.4-6.4,13.8,0,22.2,12.4,22.2,25.9S89.2,76.8,74.8,76.8a18.9,18.9,0,0,1-14.9-7.6h-.2v6.4H45.9ZM71.7,63.6c7.5,0,12-5,12-12.3S79.2,39,71.7,39s-12,5-12,12.3S64.2,63.6,71.7,63.6Z" style="fill: #e30613"/>
    <path id="O" d="M0,51.4C0,40.2,7.5,31.2,19.1,31.2s19.2,9,19.2,20.2S30.8,71.7,19.1,71.7,0,62.7,0,51.4Zm28.4,0c0-5.6-3.8-9-9.3-9s-9.2,3.4-9.2,9,3.8,9,9.2,9S28.4,57,28.4,51.4Z" style="fill: #e30613"/>
  </g>
</svg>
